Coordinates
version=1
nRows=9
nColumns=24
inDegrees=yes

Units are S.I. units (second, meters, Newtons, ...)
Angles are in degrees.

endheader
time	pelvis_tilt	pelvis_list	pelvis_rotation	pelvis_tx	pelvis_ty	pelvis_tz	hip_flexion_r	hip_adduction_r	hip_rotation_r	knee_angle_r	ankle_angle_r	subtalar_angle_r	mtp_angle_r	hip_flexion_l	hip_adduction_l	hip_rotation_l	knee_angle_l	ankle_angle_l	subtalar_angle_l	mtp_angle_l	lumbar_extension	lumbar_bending	lumbar_rotation
      0.84133333	      5.06744466	     -1.58510660	     -0.32182425	     -0.23268825	      1.03189213	      0.36712203	     -9.79673693	      4.24639616	      1.05580616	    -11.32039637	      9.17607818	     -6.98670226	     -3.87207479	     14.25586047	     -0.08957237	     -0.51652882	    -47.03649290	      8.64626641	     -7.82698539	     -3.79564583	    -16.81484782	      9.03263627	      2.39739293
      0.84550000	      5.01766579	     -1.49528870	     -0.31155359	     -0.22772339	      1.03224822	      0.36715208	    -10.17396539	      4.14558495	      1.02898146	    -11.01857226	      8.90846797	     -7.00923944	     -3.84718435	     14.43873217	      0.08340779	     -0.42875029	    -45.66844385	      8.82978186	     -7.83397166	     -3.89587980	    -16.80097840	      8.89895316	      2.45793870
      0.84966667	      4.97289488	     -1.41705282	     -0.29094799	     -0.22275802	      1.03256463	      0.36715806	    -10.55139549	      4.05740327	      0.98375129	    -10.72759256	      8.64715488	     -7.01840244	     -3.81699535	     14.60294279	      0.24491828	     -0.32797773	    -44.27105591	      8.96479680	     -7.84243130	     -3.98972396	    -16.79250970	      8.78656658	      2.50579892
      0.85383333	      4.90021118	     -1.34016454	     -0.27079494	     -0.21778478	      1.03280691	      0.36715270	    -10.88021895	      3.96753533	      0.89611412	    -10.47354119	      8.37294733	     -7.00451533	     -3.79827794	     14.78339436	      0.39821412	     -0.24287888	    -42.84488234	      9.07287535	     -7.80974315	     -4.04351882	    -16.74737519	      8.68269472	      2.53405062
      0.85800000	      4.87428755	     -1.26198123	     -0.23897675	     -0.21280347	      1.03309781	      0.36712980	    -11.28356915	      3.88123670	      0.85149204	    -10.17235158	      8.13023054	     -7.01360175	     -3.75278331	     14.88283349	      0.56973286	     -0.10124603	    -41.35643586	      9.07439171	     -7.90712549	     -4.13732486	    -16.76190424	      8.57074123	      2.56392931
      0.86216667	      4.83593330	     -1.19000471	     -0.20491561	     -0.20782762	      1.03334041	      0.36710326	    -11.65321056	      3.80050786	      0.76972350	     -9.91073297	      7.86815084	     -6.99663437	     -3.70564625	     14.98005867	      0.72703978	      0.03143880	    -39.83868796	      9.06123543	     -7.93334644	     -4.21780124	    -16.75968364	      8.46579810	      2.57835182
      0.86633333	      4.77069049	     -1.11938257	     -0.16797867	     -0.20282672	      1.03348830	      0.36705426	    -11.98446671	      3.71974217	      0.66231189	     -9.67356857	      7.61983028	     -6.97194572	     -3.65157263	     15.09137954	      0.88105708	      0.15987087	    -38.29723925	      9.00398030	     -7.97778629	     -4.29466090	    -16.72548874	      8.37000573	      2.58560772
      0.87050000	      4.70104261	     -1.05245246	     -0.12726574	     -0.19781324	      1.03361816	      0.36700134	    -12.30965821	      3.64411330	      0.54151494	     -9.43670395	      7.36751708	     -6.94762587	     -3.59232908	     15.18527231	      1.02756884	      0.28746652	    -36.71696249	      8.90464415	     -8.02603137	     -4.36674504	    -16.68577801	      8.28770804	      2.58421449
      0.87466667	      4.65107646	     -1.00154850	     -0.07612678	     -0.19279845	      1.03371714	      0.36693603	    -12.65496696	      3.58899006	      0.42894600	     -9.20778872	      7.14001793	     -6.90695300	     -3.50992062	     15.23893596	      1.16028829	      0.44308078	    -35.10595824	      8.76049289	     -8.10160290	     -4.44824792	    -16.65173774	      8.20862970	      2.57046808
